<mxfile host="app.diagrams.net" modified="2022-10-18T04:38:54.271Z" agent="5.0 (Windows NT 10.0; Win64; x64) AppleWebKit/537.36 (KHTML, like Gecko) Chrome/106.0.0.0 Safari/537.36" etag="ss4FvhVOY0-2zzpJ5-fh" version="20.4.1" type="github" pages="2">
  <diagram name="Page-1" id="03018318-947c-dd8e-b7a3-06fadd420f32">
    <mxGraphModel dx="2480" dy="1142" grid="0" gridSize="10" guides="1" tooltips="1" connect="1" arrows="1" fold="1" page="1" pageScale="1" pageWidth="1100" pageHeight="850" background="#D4E1F5" math="0" shadow="0">
      <root>
        <mxCell id="0" />
        <mxCell id="1" parent="0" />
        <mxCell id="n3PRGFTgy8TkrgbsDVCJ-1" value="" style="rounded=1;whiteSpace=wrap;html=1;shadow=0;fillStyle=solid;arcSize=0;strokeColor=none;" parent="1" vertex="1">
          <mxGeometry x="320" y="581" width="10" height="10" as="geometry" />
        </mxCell>
        <mxCell id="n3PRGFTgy8TkrgbsDVCJ-2" value="" style="rounded=1;whiteSpace=wrap;html=1;shadow=0;fillStyle=solid;arcSize=0;strokeColor=none;" parent="1" vertex="1">
          <mxGeometry x="604" y="622" width="10" height="10" as="geometry" />
        </mxCell>
        <mxCell id="n3PRGFTgy8TkrgbsDVCJ-3" value="" style="rounded=1;whiteSpace=wrap;html=1;shadow=0;fillStyle=solid;arcSize=0;strokeColor=none;" parent="1" vertex="1">
          <mxGeometry x="782" y="303" width="10" height="10" as="geometry" />
        </mxCell>
        <mxCell id="n3PRGFTgy8TkrgbsDVCJ-4" value="" style="rounded=1;whiteSpace=wrap;html=1;shadow=0;fillStyle=solid;arcSize=0;strokeColor=none;" parent="1" vertex="1">
          <mxGeometry x="351" y="217" width="10" height="10" as="geometry" />
        </mxCell>
        <mxCell id="n3PRGFTgy8TkrgbsDVCJ-5" value="" style="rounded=1;whiteSpace=wrap;html=1;shadow=0;fillStyle=solid;arcSize=0;strokeColor=none;" parent="1" vertex="1">
          <mxGeometry x="338" y="394" width="10" height="10" as="geometry" />
        </mxCell>
        <mxCell id="n3PRGFTgy8TkrgbsDVCJ-6" value="" style="rounded=1;whiteSpace=wrap;html=1;shadow=0;fillStyle=solid;arcSize=0;strokeColor=none;" parent="1" vertex="1">
          <mxGeometry x="211" y="466" width="10" height="10" as="geometry" />
        </mxCell>
        <mxCell id="n3PRGFTgy8TkrgbsDVCJ-7" value="" style="rounded=1;whiteSpace=wrap;html=1;shadow=0;fillStyle=solid;arcSize=0;strokeColor=none;" parent="1" vertex="1">
          <mxGeometry x="633" y="178" width="10" height="10" as="geometry" />
        </mxCell>
        <mxCell id="n3PRGFTgy8TkrgbsDVCJ-8" value="" style="rounded=1;whiteSpace=wrap;html=1;shadow=0;fillStyle=solid;arcSize=0;strokeColor=none;" parent="1" vertex="1">
          <mxGeometry x="837" y="625" width="10" height="10" as="geometry" />
        </mxCell>
        <mxCell id="e4VPzmwwMMTg7jt-zZGv-1" value="Duck &amp; Ham!" style="swimlane;" vertex="1" parent="1">
          <mxGeometry x="106" y="19" width="907" height="802" as="geometry" />
        </mxCell>
        <mxCell id="bH4a26NgoAoYKHbP_HZw-2" value="Duck and Ham have a fun day out on the town" style="rounded=0;whiteSpace=wrap;html=1;" vertex="1" parent="e4VPzmwwMMTg7jt-zZGv-1">
          <mxGeometry x="23" y="732" width="842" height="60" as="geometry" />
        </mxCell>
        <mxCell id="oZ8WvAA6hjhnT53bIM4c-2" value="" style="group" vertex="1" connectable="0" parent="e4VPzmwwMMTg7jt-zZGv-1">
          <mxGeometry x="309" y="283" width="269.88" height="236" as="geometry" />
        </mxCell>
        <mxCell id="qYA4gU_5hewh3Rp0epog-116" value="z" style="ellipse;whiteSpace=wrap;html=1;shadow=1;fillStyle=solid;strokeColor=none;fillColor=#FFF570;gradientColor=none;rotation=65;direction=west;" parent="oZ8WvAA6hjhnT53bIM4c-2" vertex="1">
          <mxGeometry x="163.19641381573334" y="119.88238307124803" width="54.29732988387385" height="37.73917608193265" as="geometry" />
        </mxCell>
        <mxCell id="qYA4gU_5hewh3Rp0epog-85" value="" style="ellipse;whiteSpace=wrap;html=1;shadow=0;fillStyle=solid;strokeColor=none;fillColor=#FFF570;gradientColor=none;direction=east;rotation=0;" parent="oZ8WvAA6hjhnT53bIM4c-2" vertex="1">
          <mxGeometry x="24.530223326120595" y="20.642327448388126" width="162.4025795675406" height="155.14994611461202" as="geometry" />
        </mxCell>
        <mxCell id="qYA4gU_5hewh3Rp0epog-86" value="" style="rounded=1;whiteSpace=wrap;html=1;shadow=0;fillStyle=solid;strokeColor=none;fillColor=#FFF570;gradientColor=none;direction=south;rotation=0;" parent="oZ8WvAA6hjhnT53bIM4c-2" vertex="1">
          <mxGeometry x="25.88969578190111" y="63.972492579495984" width="160.81199679427738" height="160.04206153264036" as="geometry" />
        </mxCell>
        <mxCell id="qYA4gU_5hewh3Rp0epog-87" value="" style="ellipse;whiteSpace=wrap;html=1;fillStyle=solid;strokeColor=none;fillColor=#FFEED9;gradientColor=none;rotation=-10;direction=south;" parent="oZ8WvAA6hjhnT53bIM4c-2" vertex="1">
          <mxGeometry x="182.2128241770551" y="153.6823999831621" width="79.0841611026702" height="75.6030756400739" as="geometry" />
        </mxCell>
        <mxCell id="qYA4gU_5hewh3Rp0epog-88" value="" style="ellipse;whiteSpace=wrap;html=1;fillStyle=solid;rotation=5;fillColor=#FFEED9;strokeColor=none;direction=west;" parent="oZ8WvAA6hjhnT53bIM4c-2" vertex="1">
          <mxGeometry x="213.4968946796125" y="163.2125482023559" width="40.78417367341552" height="40.14330137307799" as="geometry" />
        </mxCell>
        <mxCell id="qYA4gU_5hewh3Rp0epog-89" value="" style="ellipse;whiteSpace=wrap;html=1;fillStyle=solid;strokeColor=none;fillColor=#FFB366;gradientColor=none;rotation=80;direction=south;" parent="oZ8WvAA6hjhnT53bIM4c-2" vertex="1">
          <mxGeometry x="178.15061082931902" y="122.67787759583567" width="17.333273811201593" height="13.25064404654524" as="geometry" />
        </mxCell>
        <mxCell id="qYA4gU_5hewh3Rp0epog-90" value="" style="ellipse;whiteSpace=wrap;html=1;fillStyle=solid;rotation=5;fillColor=#FFEED9;strokeColor=none;direction=west;" parent="oZ8WvAA6hjhnT53bIM4c-2" vertex="1">
          <mxGeometry x="171.35324855041645" y="126.8711193827171" width="81.55475262227324" height="75.08698293042303" as="geometry" />
        </mxCell>
        <mxCell id="qYA4gU_5hewh3Rp0epog-91" value="" style="ellipse;whiteSpace=wrap;html=1;fillStyle=solid;strokeColor=none;fillColor=#FFB366;gradientColor=none;direction=west;rotation=-10;" parent="oZ8WvAA6hjhnT53bIM4c-2" vertex="1">
          <mxGeometry x="251.56212344146695" y="203.7472188088762" width="17.306084362085983" height="13.977472622938018" as="geometry" />
        </mxCell>
        <mxCell id="qYA4gU_5hewh3Rp0epog-92" value="" style="ellipse;whiteSpace=wrap;html=1;fillStyle=solid;rotation=5;fillColor=#FFB366;strokeColor=none;direction=west;" parent="oZ8WvAA6hjhnT53bIM4c-2" vertex="1">
          <mxGeometry x="167.27483118307492" y="154.82606462859306" width="40.78417367341552" height="40.14330137307799" as="geometry" />
        </mxCell>
        <mxCell id="qYA4gU_5hewh3Rp0epog-93" value="" style="ellipse;whiteSpace=wrap;html=1;fillStyle=solid;strokeColor=default;fillColor=#1A1A1A;gradientColor=none;rotation=0;direction=north;" parent="oZ8WvAA6hjhnT53bIM4c-2" vertex="1">
          <mxGeometry x="189.02639047556318" y="159.01930641547452" width="6.797362278902586" height="15.821355296985434" as="geometry" />
        </mxCell>
        <mxCell id="qYA4gU_5hewh3Rp0epog-94" value="" style="ellipse;whiteSpace=wrap;html=1;fillStyle=solid;strokeColor=default;fillColor=#1A1A1A;gradientColor=none;rotation=5;direction=north;" parent="oZ8WvAA6hjhnT53bIM4c-2" vertex="1">
          <mxGeometry x="229.8105641489787" y="166.0080427269435" width="6.797362278902586" height="15.219180262018696" as="geometry" />
        </mxCell>
        <mxCell id="qYA4gU_5hewh3Rp0epog-95" value="" style="ellipse;whiteSpace=wrap;html=1;fillStyle=solid;strokeColor=none;fillColor=#705B42;gradientColor=none;rotation=-85;direction=west;" parent="oZ8WvAA6hjhnT53bIM4c-2" vertex="1">
          <mxGeometry x="205.34005994492938" y="171.59903177611872" width="5.437889823122069" height="13.977472622938018" as="geometry" />
        </mxCell>
        <mxCell id="qYA4gU_5hewh3Rp0epog-96" value="" style="ellipse;whiteSpace=wrap;html=1;fillStyle=solid;strokeColor=none;fillColor=#FFB366;gradientColor=none;rotation=110;direction=north;" parent="oZ8WvAA6hjhnT53bIM4c-2" vertex="1">
          <mxGeometry x="242.04581625100337" y="133.85985569418602" width="17.333273811201593" height="13.25064404654524" as="geometry" />
        </mxCell>
        <mxCell id="qYA4gU_5hewh3Rp0epog-98" value="" style="rounded=1;whiteSpace=wrap;html=1;shadow=0;fillStyle=solid;strokeColor=none;fillColor=#FFF570;gradientColor=none;rotation=-50;arcSize=17;direction=west;" parent="oZ8WvAA6hjhnT53bIM4c-2" vertex="1">
          <mxGeometry x="100.66068084982957" y="10.858096612331511" width="29.90839402717138" height="11.335730297202732" as="geometry" />
        </mxCell>
        <mxCell id="qYA4gU_5hewh3Rp0epog-99" value="" style="rounded=1;whiteSpace=wrap;html=1;shadow=0;fillStyle=solid;strokeColor=none;fillColor=#FFF570;gradientColor=none;rotation=-121;arcSize=17;direction=west;" parent="oZ8WvAA6hjhnT53bIM4c-2" vertex="1">
          <mxGeometry x="81.62806646890233" y="10.858096612331511" width="29.90839402717138" height="11.335730297202732" as="geometry" />
        </mxCell>
        <mxCell id="qYA4gU_5hewh3Rp0epog-102" value="" style="rounded=1;whiteSpace=wrap;html=1;shadow=0;fillStyle=solid;strokeColor=none;fillColor=#FFB366;gradientColor=none;rotation=-50;arcSize=0;direction=west;" parent="oZ8WvAA6hjhnT53bIM4c-2" vertex="1">
          <mxGeometry x="49.0007275301699" y="203.7472188088762" width="29.90839402717138" height="8.54023577261513" as="geometry" />
        </mxCell>
        <mxCell id="qYA4gU_5hewh3Rp0epog-103" value="" style="rounded=1;whiteSpace=wrap;html=1;shadow=0;fillStyle=solid;strokeColor=none;fillColor=#FFB366;gradientColor=none;rotation=-85;arcSize=0;direction=west;" parent="oZ8WvAA6hjhnT53bIM4c-2" vertex="1">
          <mxGeometry x="39.48442033970629" y="199.55397702199483" width="29.90839402717138" height="8.54023577261513" as="geometry" />
        </mxCell>
        <mxCell id="qYA4gU_5hewh3Rp0epog-104" value="" style="rounded=1;whiteSpace=wrap;html=1;shadow=0;fillStyle=solid;strokeColor=none;fillColor=#FFB366;gradientColor=none;rotation=-50;arcSize=0;direction=north;" parent="oZ8WvAA6hjhnT53bIM4c-2" vertex="1">
          <mxGeometry x="42.20336525126733" y="191.1674934482319" width="10.943753269033166" height="30.750439770463643" as="geometry" />
        </mxCell>
        <mxCell id="qYA4gU_5hewh3Rp0epog-109" value="" style="rounded=1;whiteSpace=wrap;html=1;shadow=0;fillStyle=solid;strokeColor=none;fillColor=#FFB366;gradientColor=none;rotation=-85;arcSize=0;direction=west;" parent="oZ8WvAA6hjhnT53bIM4c-2" vertex="1">
          <mxGeometry x="134.64749224434252" y="200.95172428428853" width="29.90839402717138" height="8.54023577261513" as="geometry" />
        </mxCell>
        <mxCell id="qYA4gU_5hewh3Rp0epog-110" value="" style="rounded=0;whiteSpace=wrap;html=1;shadow=0;fillStyle=solid;strokeColor=none;fillColor=#FFB366;gradientColor=none;rotation=-50;arcSize=50;direction=north;" parent="oZ8WvAA6hjhnT53bIM4c-2" vertex="1">
          <mxGeometry x="134.64749224434252" y="195.36073523511334" width="10.943753269033166" height="30.750439770463643" as="geometry" />
        </mxCell>
        <mxCell id="qYA4gU_5hewh3Rp0epog-111" value="" style="rounded=0;whiteSpace=wrap;html=1;shadow=0;fillStyle=solid;strokeColor=none;fillColor=#FFB366;gradientColor=none;rotation=48;arcSize=50;direction=north;" parent="oZ8WvAA6hjhnT53bIM4c-2" vertex="1">
          <mxGeometry x="150.9611617137087" y="195.36073523511334" width="10.957347993590968" height="30.750439770463643" as="geometry" />
        </mxCell>
        <mxCell id="qYA4gU_5hewh3Rp0epog-112" value="" style="ellipse;whiteSpace=wrap;html=1;shadow=0;fillStyle=solid;strokeColor=default;fillColor=#1A1A1A;gradientColor=none;rotation=0;direction=north;" parent="oZ8WvAA6hjhnT53bIM4c-2" vertex="1">
          <mxGeometry x="130.56907487700093" y="77.75656801007368" width="14.95419701358569" height="24.907856214075554" as="geometry" />
        </mxCell>
        <mxCell id="qYA4gU_5hewh3Rp0epog-113" value="" style="ellipse;whiteSpace=wrap;html=1;shadow=0;fillStyle=solid;strokeColor=default;fillColor=#1A1A1A;gradientColor=none;direction=north;rotation=-5;" parent="oZ8WvAA6hjhnT53bIM4c-2" vertex="1">
          <mxGeometry x="62.59545208797507" y="80.14328469205483" width="14.95419701358569" height="24.907856214075554" as="geometry" />
        </mxCell>
        <mxCell id="qYA4gU_5hewh3Rp0epog-114" value="" style="verticalLabelPosition=bottom;verticalAlign=top;html=1;shape=mxgraph.basic.cone2;dx=0.51;dy=1;fillStyle=solid;strokeColor=none;fillColor=#FFB366;gradientColor=none;rotation=0;direction=west;" parent="oZ8WvAA6hjhnT53bIM4c-2" vertex="1">
          <mxGeometry x="84.34701138046337" y="110.09815223519144" width="40.78417367341552" height="20.896321571292336" as="geometry" />
        </mxCell>
        <mxCell id="qYA4gU_5hewh3Rp0epog-115" value="" style="ellipse;whiteSpace=wrap;html=1;shadow=1;fillStyle=solid;strokeColor=none;fillColor=#FFF570;gradientColor=none;rotation=-71;direction=west;" parent="oZ8WvAA6hjhnT53bIM4c-2" vertex="1">
          <mxGeometry x="1.419191577851802" y="133.85985569418602" width="49.10414510279227" height="40.366940935045" as="geometry" />
        </mxCell>
        <mxCell id="qYA4gU_5hewh3Rp0epog-55" value="" style="ellipse;whiteSpace=wrap;html=1;fillStyle=solid;strokeColor=none;fillColor=#f8cecc;rotation=0;" parent="oZ8WvAA6hjhnT53bIM4c-2" vertex="1">
          <mxGeometry x="42.20336525126733" y="112.89364675977907" width="31.02316144091141" height="18.044917156212982" as="geometry" />
        </mxCell>
        <mxCell id="qYA4gU_5hewh3Rp0epog-117" value="" style="ellipse;whiteSpace=wrap;html=1;fillStyle=solid;strokeColor=none;fillColor=#f8cecc;rotation=0;" parent="oZ8WvAA6hjhnT53bIM4c-2" vertex="1">
          <mxGeometry x="135.2147697789718" y="110.31353288543748" width="31.02316144091141" height="18.044917156212982" as="geometry" />
        </mxCell>
        <mxCell id="qYA4gU_5hewh3Rp0epog-60" value="" style="ellipse;whiteSpace=wrap;html=1;aspect=fixed;shadow=0;fillStyle=solid;strokeColor=none;direction=south;rotation=-10;" parent="oZ8WvAA6hjhnT53bIM4c-2" vertex="1">
          <mxGeometry x="138.15863207705476" y="78.16534585268009" width="5.849802793109473" height="5.849802793109473" as="geometry" />
        </mxCell>
        <mxCell id="qYA4gU_5hewh3Rp0epog-57" value="" style="ellipse;whiteSpace=wrap;html=1;aspect=fixed;shadow=0;fillStyle=solid;strokeColor=none;direction=south;rotation=-10;" parent="oZ8WvAA6hjhnT53bIM4c-2" vertex="1">
          <mxGeometry x="69.16789698035574" y="80.55206253466129" width="5.849802793109473" height="5.849802793109473" as="geometry" />
        </mxCell>
      </root>
    </mxGraphModel>
  </diagram>
  <diagram name="Copy of Page-1" id="Tj2ta9u5rStk2KfQCZOO">
    <mxGraphModel dx="2000" dy="1074" grid="0" gridSize="10" guides="1" tooltips="1" connect="1" arrows="1" fold="1" page="1" pageScale="1" pageWidth="1100" pageHeight="850" background="#D4E1F5" math="0" shadow="0">
      <root>
        <mxCell id="aT9KN1qvBLgvS_84GYz0-0" />
        <mxCell id="aT9KN1qvBLgvS_84GYz0-1" parent="aT9KN1qvBLgvS_84GYz0-0" />
        <mxCell id="xa-J0d7tpiZaeWjWJirz-0" value="" style="rounded=1;whiteSpace=wrap;html=1;shadow=0;fillStyle=solid;arcSize=0;strokeColor=none;" parent="aT9KN1qvBLgvS_84GYz0-1" vertex="1">
          <mxGeometry x="837" y="561" width="10" height="10" as="geometry" />
        </mxCell>
        <mxCell id="eqkRF5LnX0ZKiGZC_bCB-0" value="" style="rounded=1;whiteSpace=wrap;html=1;shadow=0;fillStyle=solid;arcSize=0;strokeColor=none;" parent="aT9KN1qvBLgvS_84GYz0-1" vertex="1">
          <mxGeometry x="320" y="553" width="10" height="10" as="geometry" />
        </mxCell>
        <mxCell id="95XIHYNyI5XEnFgTKR0R-0" value="" style="rounded=1;whiteSpace=wrap;html=1;shadow=0;fillStyle=solid;arcSize=0;strokeColor=none;" parent="aT9KN1qvBLgvS_84GYz0-1" vertex="1">
          <mxGeometry x="211" y="484" width="10" height="10" as="geometry" />
        </mxCell>
        <mxCell id="UJZsg70hwIHfnPXY4TU9-0" value="" style="rounded=1;whiteSpace=wrap;html=1;shadow=0;fillStyle=solid;arcSize=0;strokeColor=none;" parent="aT9KN1qvBLgvS_84GYz0-1" vertex="1">
          <mxGeometry x="338" y="354" width="10" height="10" as="geometry" />
        </mxCell>
        <mxCell id="Ny7NHFFM0vV8O4ZWB_Mi-0" value="" style="rounded=1;whiteSpace=wrap;html=1;shadow=0;fillStyle=solid;arcSize=0;strokeColor=none;" parent="aT9KN1qvBLgvS_84GYz0-1" vertex="1">
          <mxGeometry x="351" y="195" width="10" height="10" as="geometry" />
        </mxCell>
        <mxCell id="ASmTXelbPBAuL8YlTKWf-0" value="Duck and Ham are sleepy...." style="rounded=0;whiteSpace=wrap;html=1;" vertex="1" parent="aT9KN1qvBLgvS_84GYz0-1">
          <mxGeometry x="129" y="751" width="842" height="60" as="geometry" />
        </mxCell>
        <mxCell id="Bl6V8U_AvlA68c-H5LRZ-2" value="" style="group" vertex="1" connectable="0" parent="aT9KN1qvBLgvS_84GYz0-1">
          <mxGeometry x="676" y="167" width="128.00000000000003" height="125" as="geometry" />
        </mxCell>
        <mxCell id="39L9usjs9rep12haUZfs-0" value="" style="rounded=1;whiteSpace=wrap;html=1;shadow=0;fillStyle=solid;arcSize=0;strokeColor=none;" parent="Bl6V8U_AvlA68c-H5LRZ-2" vertex="1">
          <mxGeometry x="106" y="115" width="10" height="10" as="geometry" />
        </mxCell>
        <mxCell id="Bl6V8U_AvlA68c-H5LRZ-5" value="" style="group" vertex="1" connectable="0" parent="aT9KN1qvBLgvS_84GYz0-1">
          <mxGeometry x="106" y="19" width="907" height="802" as="geometry" />
        </mxCell>
        <mxCell id="7XV4rHrYUgCc31ZrFTOT-0" value="" style="rounded=1;whiteSpace=wrap;html=1;shadow=0;fillStyle=solid;arcSize=0;strokeColor=none;" parent="Bl6V8U_AvlA68c-H5LRZ-5" vertex="1">
          <mxGeometry x="527" y="177" width="10" height="10" as="geometry" />
        </mxCell>
        <mxCell id="6BkMu8O3p62wSRpv7Ux4-4" value="Duck &amp; Ham!" style="swimlane;" vertex="1" parent="Bl6V8U_AvlA68c-H5LRZ-5">
          <mxGeometry width="907" height="802" as="geometry" />
        </mxCell>
        <mxCell id="Bl6V8U_AvlA68c-H5LRZ-1" value="" style="group" vertex="1" connectable="0" parent="6BkMu8O3p62wSRpv7Ux4-4">
          <mxGeometry x="332.43" y="238" width="324.57000000000005" height="254.57" as="geometry" />
        </mxCell>
        <mxCell id="aT9KN1qvBLgvS_84GYz0-3" value="" style="ellipse;whiteSpace=wrap;html=1;shadow=1;fillStyle=solid;strokeColor=none;fillColor=#FFF570;gradientColor=none;rotation=65;direction=west;" parent="Bl6V8U_AvlA68c-H5LRZ-1" vertex="1">
          <mxGeometry x="168.63871307592902" y="129.31550109511699" width="56.10804564256241" height="40.70873752193895" as="geometry" />
        </mxCell>
        <mxCell id="aT9KN1qvBLgvS_84GYz0-4" value="" style="ellipse;whiteSpace=wrap;html=1;shadow=0;fillStyle=solid;strokeColor=none;fillColor=#FFF570;gradientColor=none;direction=east;rotation=0;" parent="Bl6V8U_AvlA68c-H5LRZ-1" vertex="1">
          <mxGeometry x="25.348261009294916" y="22.26659872261087" width="167.81840592039322" height="167.3581431457491" as="geometry" />
        </mxCell>
        <mxCell id="aT9KN1qvBLgvS_84GYz0-5" value="" style="rounded=1;whiteSpace=wrap;html=1;shadow=0;fillStyle=solid;strokeColor=none;fillColor=#FFF570;gradientColor=none;direction=south;rotation=0;" parent="Bl6V8U_AvlA68c-H5LRZ-1" vertex="1">
          <mxGeometry x="26.753069362889367" y="69.00626032187411" width="166.1747801466877" height="172.63520171340784" as="geometry" />
        </mxCell>
        <mxCell id="aT9KN1qvBLgvS_84GYz0-6" value="" style="ellipse;whiteSpace=wrap;html=1;fillStyle=solid;strokeColor=none;fillColor=#FFEED9;gradientColor=none;rotation=-10;direction=south;" parent="Bl6V8U_AvlA68c-H5LRZ-1" vertex="1">
          <mxGeometry x="188.2892856324927" y="165.77512103268464" width="81.72147194424436" height="81.55201256649836" as="geometry" />
        </mxCell>
        <mxCell id="aT9KN1qvBLgvS_84GYz0-7" value="" style="ellipse;whiteSpace=wrap;html=1;fillStyle=solid;rotation=5;fillColor=#FFEED9;strokeColor=none;direction=west;" parent="Bl6V8U_AvlA68c-H5LRZ-1" vertex="1">
          <mxGeometry x="220.61662215892375" y="176.05516269438024" width="42.14425060783356" height="43.30203487518841" as="geometry" />
        </mxCell>
        <mxCell id="aT9KN1qvBLgvS_84GYz0-8" value="" style="ellipse;whiteSpace=wrap;html=1;fillStyle=solid;strokeColor=none;fillColor=#FFB366;gradientColor=none;rotation=80;direction=west;" parent="Bl6V8U_AvlA68c-H5LRZ-1" vertex="1">
          <mxGeometry x="186.5977515134612" y="129.5539228744657" width="12.899013412342866" height="19.847370581885563" as="geometry" />
        </mxCell>
        <mxCell id="aT9KN1qvBLgvS_84GYz0-9" value="" style="ellipse;whiteSpace=wrap;html=1;fillStyle=solid;rotation=5;fillColor=#FFEED9;strokeColor=none;direction=west;" parent="Bl6V8U_AvlA68c-H5LRZ-1" vertex="1">
          <mxGeometry x="177.06756319749573" y="136.8541561917724" width="84.27445313213117" height="80.99531035846523" as="geometry" />
        </mxCell>
        <mxCell id="aT9KN1qvBLgvS_84GYz0-10" value="" style="ellipse;whiteSpace=wrap;html=1;fillStyle=solid;strokeColor=none;fillColor=#FFB366;gradientColor=none;direction=west;rotation=-10;" parent="Bl6V8U_AvlA68c-H5LRZ-1" vertex="1">
          <mxGeometry x="259.95125605956844" y="219.77936225498135" width="17.88321034125737" height="15.077310193310726" as="geometry" />
        </mxCell>
        <mxCell id="aT9KN1qvBLgvS_84GYz0-11" value="" style="ellipse;whiteSpace=wrap;html=1;fillStyle=solid;rotation=5;fillColor=#FFB366;strokeColor=none;direction=west;" parent="Bl6V8U_AvlA68c-H5LRZ-1" vertex="1">
          <mxGeometry x="172.85313813671237" y="167.0087765783938" width="42.14425060783356" height="43.30203487518841" as="geometry" />
        </mxCell>
        <mxCell id="aT9KN1qvBLgvS_84GYz0-14" value="" style="ellipse;whiteSpace=wrap;html=1;fillStyle=solid;strokeColor=none;fillColor=#705B42;gradientColor=none;rotation=-85;direction=west;" parent="Bl6V8U_AvlA68c-H5LRZ-1" vertex="1">
          <mxGeometry x="212.77396723098906" y="185.1015488103667" width="5.619233414377808" height="15.077310193310726" as="geometry" />
        </mxCell>
        <mxCell id="aT9KN1qvBLgvS_84GYz0-15" value="" style="ellipse;whiteSpace=wrap;html=1;fillStyle=solid;strokeColor=none;fillColor=#FFB366;gradientColor=none;rotation=110;direction=east;" parent="Bl6V8U_AvlA68c-H5LRZ-1" vertex="1">
          <mxGeometry x="250.86515855150427" y="142.914887119381" width="12.899013412342866" height="19.847370581885563" as="geometry" />
        </mxCell>
        <mxCell id="aT9KN1qvBLgvS_84GYz0-27" value="" style="ellipse;whiteSpace=wrap;html=1;shadow=1;fillStyle=solid;strokeColor=none;fillColor=#FFF570;gradientColor=none;rotation=-71;direction=west;" parent="Bl6V8U_AvlA68c-H5LRZ-1" vertex="1">
          <mxGeometry x="1.4665189981892344" y="144.39281128842774" width="50.741677731831594" height="43.543271838281385" as="geometry" />
        </mxCell>
        <mxCell id="mlZIR7XaXWv53GJLaf9d-2" value="" style="rounded=1;whiteSpace=wrap;html=1;shadow=0;fillStyle=solid;strokeColor=default;fillColor=#1A1A1A;gradientColor=none;rotation=0;" parent="Bl6V8U_AvlA68c-H5LRZ-1" vertex="1">
          <mxGeometry x="191.7009416594312" y="177.5775907127586" width="16.413465421697456" height="4.975614625721843" as="geometry" />
        </mxCell>
        <mxCell id="mlZIR7XaXWv53GJLaf9d-3" value="" style="rounded=1;whiteSpace=wrap;html=1;shadow=0;fillStyle=solid;strokeColor=default;fillColor=#1A1A1A;gradientColor=none;rotation=5;" parent="Bl6V8U_AvlA68c-H5LRZ-1" vertex="1">
          <mxGeometry x="231.56221482641072" y="183.62497611295055" width="16.413465421697456" height="4.975614625721843" as="geometry" />
        </mxCell>
        <mxCell id="mlZIR7XaXWv53GJLaf9d-8" value="" style="rounded=1;whiteSpace=wrap;html=1;shadow=0;fillStyle=solid;strokeColor=none;fillColor=#005EBD;" parent="Bl6V8U_AvlA68c-H5LRZ-1" vertex="1">
          <mxGeometry x="199.18450550268312" y="44.096606332899206" width="31.06834526249875" height="9.4442545867342" as="geometry" />
        </mxCell>
        <mxCell id="Bl6V8U_AvlA68c-H5LRZ-7" value="" style="group" vertex="1" connectable="0" parent="Bl6V8U_AvlA68c-H5LRZ-1">
          <mxGeometry x="196.57" y="-43" width="109.85385703125002" height="83.00000000000001" as="geometry" />
        </mxCell>
        <mxCell id="mlZIR7XaXWv53GJLaf9d-6" value="" style="rounded=1;whiteSpace=wrap;html=1;shadow=0;fillStyle=solid;strokeColor=none;fillColor=#005EBD;" parent="Bl6V8U_AvlA68c-H5LRZ-7" vertex="1">
          <mxGeometry y="53.01219512195122" width="38.02289062499999" height="9.987804878048781" as="geometry" />
        </mxCell>
        <mxCell id="mlZIR7XaXWv53GJLaf9d-13" value="" style="group" parent="Bl6V8U_AvlA68c-H5LRZ-7" vertex="1" connectable="0">
          <mxGeometry x="39.95385703125002" width="69.9" height="59.7270731707317" as="geometry" />
        </mxCell>
        <mxCell id="mlZIR7XaXWv53GJLaf9d-9" value="" style="rounded=1;whiteSpace=wrap;html=1;shadow=0;fillStyle=solid;strokeColor=none;fillColor=#005EBD;arcSize=6;" parent="mlZIR7XaXWv53GJLaf9d-13" vertex="1">
          <mxGeometry x="10.793968647514726" y="44.22034779977989" width="51.88318994623526" height="11.360383907537184" as="geometry" />
        </mxCell>
        <mxCell id="mlZIR7XaXWv53GJLaf9d-10" value="" style="rounded=1;whiteSpace=wrap;html=1;shadow=0;fillStyle=solid;strokeColor=none;fillColor=#005EBD;" parent="mlZIR7XaXWv53GJLaf9d-13" vertex="1">
          <mxGeometry x="10.692109374999998" y="-4.4329993601573845" width="49.81279834449053" height="11.360383907537184" as="geometry" />
        </mxCell>
        <mxCell id="mlZIR7XaXWv53GJLaf9d-11" value="" style="rounded=1;whiteSpace=wrap;html=1;shadow=0;fillStyle=solid;strokeColor=none;fillColor=#005EBD;rotation=-225;" parent="mlZIR7XaXWv53GJLaf9d-13" vertex="1">
          <mxGeometry x="5.676142968750014" y="17" width="62.11" height="14.11" as="geometry" />
        </mxCell>
        <mxCell id="mlZIR7XaXWv53GJLaf9d-7" value="" style="rounded=1;whiteSpace=wrap;html=1;shadow=0;fillStyle=solid;strokeColor=none;fillColor=#005EBD;rotation=-225;" parent="Bl6V8U_AvlA68c-H5LRZ-7" vertex="1">
          <mxGeometry x="-3.0599999999999996" y="69.57" width="43.99" height="12" as="geometry" />
        </mxCell>
        <mxCell id="RD8BsZ4p8TUefY8QOHze-0" value="" style="group" vertex="1" connectable="0" parent="Bl6V8U_AvlA68c-H5LRZ-1">
          <mxGeometry x="28.989732585199015" y="1.431752076477057" width="149.56052084257243" height="240.7554195502013" as="geometry" />
        </mxCell>
        <mxCell id="aT9KN1qvBLgvS_84GYz0-16" value="" style="rounded=1;whiteSpace=wrap;html=1;shadow=0;fillStyle=solid;strokeColor=none;fillColor=#FFF570;gradientColor=none;rotation=-50;arcSize=17;direction=west;" parent="RD8BsZ4p8TUefY8QOHze-0" vertex="1">
          <mxGeometry x="75.0277962253852" y="10.280729510816299" width="30.905783779077947" height="12.227698566774999" as="geometry" />
        </mxCell>
        <mxCell id="aT9KN1qvBLgvS_84GYz0-17" value="" style="rounded=1;whiteSpace=wrap;html=1;shadow=0;fillStyle=solid;strokeColor=none;fillColor=#FFF570;gradientColor=none;rotation=-121;arcSize=17;direction=west;" parent="RD8BsZ4p8TUefY8QOHze-0" vertex="1">
          <mxGeometry x="55.36047927506288" y="10.280729510816299" width="30.905783779077947" height="12.227698566774999" as="geometry" />
        </mxCell>
        <mxCell id="aT9KN1qvBLgvS_84GYz0-18" value="" style="rounded=1;whiteSpace=wrap;html=1;shadow=0;fillStyle=solid;strokeColor=none;fillColor=#FFB366;gradientColor=none;rotation=-50;arcSize=0;direction=west;" parent="RD8BsZ4p8TUefY8QOHze-0" vertex="1">
          <mxGeometry x="21.645078788796035" y="218.34761017850428" width="30.905783779077947" height="9.212236528112852" as="geometry" />
        </mxCell>
        <mxCell id="aT9KN1qvBLgvS_84GYz0-19" value="" style="rounded=1;whiteSpace=wrap;html=1;shadow=0;fillStyle=solid;strokeColor=none;fillColor=#FFB366;gradientColor=none;rotation=-85;arcSize=0;direction=west;" parent="RD8BsZ4p8TUefY8QOHze-0" vertex="1">
          <mxGeometry x="11.81142031363487" y="213.8244171205111" width="30.905783779077947" height="9.212236528112852" as="geometry" />
        </mxCell>
        <mxCell id="aT9KN1qvBLgvS_84GYz0-20" value="" style="rounded=1;whiteSpace=wrap;html=1;shadow=0;fillStyle=solid;strokeColor=none;fillColor=#FFB366;gradientColor=none;rotation=-50;arcSize=0;direction=north;" parent="RD8BsZ4p8TUefY8QOHze-0" vertex="1">
          <mxGeometry x="11.103865859031472" y="204.77803100452462" width="8.963926471907131" height="33.1700824252836" as="geometry" />
        </mxCell>
        <mxCell id="aT9KN1qvBLgvS_84GYz0-21" value="" style="rounded=1;whiteSpace=wrap;html=1;shadow=0;fillStyle=solid;strokeColor=none;fillColor=#FFB366;gradientColor=none;rotation=-85;arcSize=0;direction=west;" parent="RD8BsZ4p8TUefY8QOHze-0" vertex="1">
          <mxGeometry x="110.14800506524648" y="215.33214813984216" width="30.905783779077947" height="9.212236528112852" as="geometry" />
        </mxCell>
        <mxCell id="aT9KN1qvBLgvS_84GYz0-22" value="" style="rounded=0;whiteSpace=wrap;html=1;shadow=0;fillStyle=solid;strokeColor=none;fillColor=#FFB366;gradientColor=none;rotation=-50;arcSize=50;direction=north;" parent="RD8BsZ4p8TUefY8QOHze-0" vertex="1">
          <mxGeometry x="110.14800506524648" y="209.30122406251786" width="9.550121665539184" height="33.1700824252836" as="geometry" />
        </mxCell>
        <mxCell id="aT9KN1qvBLgvS_84GYz0-23" value="" style="rounded=0;whiteSpace=wrap;html=1;shadow=0;fillStyle=solid;strokeColor=none;fillColor=#FFB366;gradientColor=none;rotation=48;arcSize=50;direction=north;" parent="RD8BsZ4p8TUefY8QOHze-0" vertex="1">
          <mxGeometry x="128.76429088927608" y="209.30122406251786" width="10.150364942707176" height="33.1700824252836" as="geometry" />
        </mxCell>
        <mxCell id="aT9KN1qvBLgvS_84GYz0-26" value="" style="verticalLabelPosition=bottom;verticalAlign=top;html=1;shape=mxgraph.basic.cone2;dx=0.51;dy=1;fillStyle=solid;strokeColor=none;fillColor=#FFB366;gradientColor=none;rotation=0;direction=west;" parent="RD8BsZ4p8TUefY8QOHze-0" vertex="1">
          <mxGeometry x="58.1700959822518" y="117.32963188332245" width="42.14425060783356" height="22.540578738999535" as="geometry" />
        </mxCell>
        <mxCell id="aT9KN1qvBLgvS_84GYz0-28" value="" style="ellipse;whiteSpace=wrap;html=1;fillStyle=solid;strokeColor=none;fillColor=#f8cecc;rotation=0;" parent="RD8BsZ4p8TUefY8QOHze-0" vertex="1">
          <mxGeometry x="14.621037020823785" y="120.34509392198464" width="32.05772662902539" height="19.46480745956415" as="geometry" />
        </mxCell>
        <mxCell id="aT9KN1qvBLgvS_84GYz0-29" value="" style="ellipse;whiteSpace=wrap;html=1;fillStyle=solid;strokeColor=none;fillColor=#f8cecc;rotation=0;" parent="RD8BsZ4p8TUefY8QOHze-0" vertex="1">
          <mxGeometry x="110.14800506524648" y="118.86107616059405" width="32.05772662902539" height="19.46480745956415" as="geometry" />
        </mxCell>
        <mxCell id="mlZIR7XaXWv53GJLaf9d-0" value="" style="rounded=1;whiteSpace=wrap;html=1;shadow=0;fillStyle=solid;strokeColor=default;fillColor=#1A1A1A;gradientColor=none;rotation=-5;" parent="RD8BsZ4p8TUefY8QOHze-0" vertex="1">
          <mxGeometry x="24.75603220486513" y="94.92510067280114" width="33.41312603702696" height="8.872962896522244" as="geometry" />
        </mxCell>
        <mxCell id="mlZIR7XaXWv53GJLaf9d-1" value="" style="rounded=1;whiteSpace=wrap;html=1;shadow=0;fillStyle=solid;strokeColor=default;fillColor=#1A1A1A;gradientColor=none;rotation=5;" parent="RD8BsZ4p8TUefY8QOHze-0" vertex="1">
          <mxGeometry x="103.0013666508714" y="94.05469289232244" width="33.41312603702696" height="8.872962896522244" as="geometry" />
        </mxCell>
      </root>
    </mxGraphModel>
  </diagram>
</mxfile>
